<svg xmlns="http://www.w3.org/2000/svg" viewBox="0 0 137 144.28"><defs><style>.cls-1{fill:#010101;}</style></defs><g id="Layer_2" data-name="Layer 2"><g id="Layer_1-2" data-name="Layer 1"><path class="cls-1" d="M17,103.94l1.74-.3a92.15,92.15,0,0,1,28.71-.39l1.82.26.43,25.09a16.26,16.26,0,0,0,10.73,14.83A16.6,16.6,0,0,0,77.63,139l3.08-3.74a432.1,432.1,0,0,1,51.88-52.9,15.91,15.91,0,0,0,1.27-20.49,17.08,17.08,0,0,0-1.68-1.93,389.52,389.52,0,0,1-53.31-51L75,4.4a16,16,0,0,0-21.74-.29A16.29,16.29,0,0,0,48,16.68l.33,25.39-1.73.37a93.07,93.07,0,0,1-28.45,1.63l-6.25-.6a12.23,12.23,0,0,0-9.63,4.64A12.28,12.28,0,0,0,.49,58.78a58.76,58.76,0,0,1,.35,28L.52,88.15a16.08,16.08,0,0,0,12,15.3A15.63,15.63,0,0,0,17,103.94Zm-.44-16h0l.05-28.59a182.93,182.93,0,0,0,42.09-1l2-.27a4,4,0,0,0,3.84-4l-.12-7.36L64,16l1,1.16a420.13,420.13,0,0,0,56,54.13h0a293.94,293.94,0,0,0-50,50.24l-5.28,6.76L65.09,95,65,90.78a4,4,0,0,0-4-3.89l-4.33-.31A189,189,0,0,0,16.52,87.94Z"/></g></g></svg>