<?xml version="1.0" encoding="utf-8"?>
<!-- Generator: Adobe Illustrator 25.1.0, SVG Export Plug-In . SVG Version: 6.00 Build 0)  -->
<svg version="1.1" id="Layer_1" xmlns="http://www.w3.org/2000/svg" xmlns:xlink="http://www.w3.org/1999/xlink" x="0px" y="0px"
	 viewBox="0 0 137 144.3" style="enable-background:new 0 0 137 144.3;" xml:space="preserve">
<style type="text/css">
	.st0{fill:#FF700E;}
	.st1{fill:#010101;}
</style>
<path class="st0" d="M16.6,87.9L16.6,87.9l0-28.6c14,1.3,28.1,1,42.1-1l2-0.3c2.1-0.1,3.8-1.9,3.8-4l-0.1-7.4L64,16l1,1.2
	c17,19.7,35.7,37.9,56,54.1l0,0c-18.6,14.7-35.4,31.5-50,50.2l-5.3,6.8L65.1,95L65,90.8c-0.1-2.2-1.8-3.9-4-3.9l-4.3-0.3
	C43.3,85.6,29.8,86.1,16.6,87.9L16.6,87.9z"/>
<g id="Layer_2_1_">
	<g id="Layer_1-2">
		<path class="st1" d="M17,103.9l1.7-0.3c9.5-1.6,19.2-1.8,28.7-0.4l1.8,0.3l0.4,25.1c0.2,6.7,4.4,12.6,10.7,14.8
			c6.1,2,12.8,0.2,17.2-4.4l3.1-3.7c15.7-19.1,33.1-36.8,51.9-52.9c5.4-5.6,5.9-14.3,1.3-20.5c-0.5-0.7-1.1-1.3-1.7-1.9
			C112.8,44.7,95,27.6,78.9,8.9L75,4.4c-6.1-5.8-15.5-5.9-21.7-0.3c-3.5,3.2-5.4,7.8-5.3,12.6l0.3,25.4l-1.7,0.4
			c-9.3,2-18.9,2.6-28.5,1.6l-6.2-0.6c-3.8,0-7.3,1.7-9.6,4.6c-2.2,3.1-2.9,7-1.8,10.7c2.4,9.2,2.5,18.8,0.4,28l-0.3,1.4
			c0.1,7.2,5,13.5,12,15.3C14,103.8,15.5,104,17,103.9z M16.6,87.9L16.6,87.9l0-28.6c14,1.3,28.1,1,42.1-1l2-0.3
			c2.1-0.1,3.8-1.9,3.8-4l-0.1-7.4L64,16l1,1.2c17,19.7,35.7,37.9,56,54.1l0,0c-18.6,14.7-35.4,31.5-50,50.2l-5.3,6.8L65.1,95
			L65,90.8c-0.1-2.2-1.8-3.9-4-3.9l-4.3-0.3C43.3,85.6,29.8,86.1,16.6,87.9L16.6,87.9z"/>
	</g>
</g>
</svg>
