<svg xmlns="http://www.w3.org/2000/svg" viewBox="0 0 42.5 49.89"><defs><style>.cls-1{fill:#222;}</style></defs><g id="Layer_2" data-name="Layer 2"><g id="Layer_2-2" data-name="Layer 2"><path class="cls-1" d="M42.5,14.75a3,3,0,0,0-.81-2.24,3,3,0,0,0-2.19-.94h-5l-1.34-9a3,3,0,0,0-3-2.56H12.29a3,3,0,0,0-3,2.56L8,11.57H3a3,3,0,0,0-2.19.94A3,3,0,0,0,0,14.75l1,16-1,16a3,3,0,0,0,3,3.19H39.5a3,3,0,0,0,3-3.19l-1-16ZM14.88,6H27.63l.83,5.57H14.05ZM6.19,17.57H35.82l-2,13.16L29.49,43.89H6.19l.8-13a2.28,2.28,0,0,0,0-.37Z"/></g></g></svg>