<svg xmlns="http://www.w3.org/2000/svg" viewBox="0 0 217.88 217.88"><defs><style>.cls-1{fill:#222;}</style></defs><g id="Layer_2" data-name="Layer 2"><g id="Layer_1-2" data-name="Layer 1"><path class="cls-1" d="M157.57,84.32a15.64,15.64,0,0,1-1.8-.1,16.61,16.61,0,1,1,1.8.1Zm0-25.64a8.94,8.94,0,1,0,1,0C158.2,58.7,157.87,58.68,157.55,58.68Z"/><path class="cls-1" d="M114.76,79.68a15.81,15.81,0,0,1-1.81-.1A16.66,16.66,0,0,1,98.19,61.25h0a16.65,16.65,0,1,1,16.57,18.44Zm-9-17.61a9,9,0,1,0,9.9-8,9,9,0,0,0-9.9,8Z"/><path class="cls-1" d="M132.57,115.37a16,16,0,0,1-1.82-.1,16.64,16.64,0,1,1,18.34-14.75h0a16.66,16.66,0,0,1-16.52,14.85Zm0-25.63a9,9,0,0,0-7,14.62,9,9,0,0,0,15.94-4.66h0a9,9,0,0,0-8-9.9A8,8,0,0,0,132.53,89.74Z"/><path class="cls-1" d="M186,31.91A108.94,108.94,0,1,0,31.91,186,108.94,108.94,0,1,0,186,31.91ZM7.68,106.61C8.91,52.08,53.62,8.07,108.17,7.66A100.71,100.71,0,0,1,141.44,13,54,54,0,0,1,171,37.45,106.77,106.77,0,0,1,78.16,196.91c-1,0-2.06,0-3.09,0A55.22,55.22,0,0,1,37.78,181,101,101,0,0,1,7.68,106.61Z"/></g></g></svg>