<svg xmlns="http://www.w3.org/2000/svg" viewBox="0 0 28.27 52.24"><defs><style>.cls-1{fill:#222;}</style></defs><g id="Layer_2" data-name="Layer 2"><g id="Layer_2-2" data-name="Layer 2"><path class="cls-1" d="M27.16,0H20.4C12.8,0,7.87,5.05,7.87,12.84v5.93H1.07A1.06,1.06,0,0,0,0,19.84v8.59A1.07,1.07,0,0,0,1.07,29.5h6.8V51.17A1.07,1.07,0,0,0,9,52.24h8.86a1.07,1.07,0,0,0,1.08-1.07V29.46h8a1.07,1.07,0,0,0,1.07-1.07V19.8a1.08,1.08,0,0,0-1.07-1.07H18.89v-5c0-2.43.55-3.66,3.73-3.66H27.2A1.07,1.07,0,0,0,28.27,9v-8A1.13,1.13,0,0,0,27.16,0Z"/></g></g></svg>