<svg xmlns="http://www.w3.org/2000/svg" viewBox="0 0 52.27 52.24"><defs><style>.cls-1{fill:#222;}</style></defs><g id="Layer_2" data-name="Layer 2"><g id="Layer_2-2" data-name="Layer 2"><path class="cls-1" d="M26.1,4.69c7,0,7.81,0,10.55.16a13.84,13.84,0,0,1,4.85.91,7.92,7.92,0,0,1,3,2,8.28,8.28,0,0,1,1.95,3,14.71,14.71,0,0,1,.92,4.84c.12,2.74.15,3.59.15,10.55s0,7.81-.15,10.55a14,14,0,0,1-.92,4.85,7.92,7.92,0,0,1-1.95,3,8.16,8.16,0,0,1-3,1.95,14.79,14.79,0,0,1-4.85.92c-2.74.12-3.59.15-10.55.15s-7.81,0-10.55-.15a14,14,0,0,1-4.84-.92,8,8,0,0,1-3-1.95,8.16,8.16,0,0,1-1.95-3,14.87,14.87,0,0,1-.91-4.85c-.13-2.74-.16-3.59-.16-10.55s0-7.81.16-10.55a13.77,13.77,0,0,1,.91-4.84,8,8,0,0,1,2-3,8.28,8.28,0,0,1,3-1.95,14.79,14.79,0,0,1,4.84-.91c2.78-.13,3.59-.16,10.55-.16M26.1,0c-7.08,0-8,0-10.77.16A18.13,18.13,0,0,0,9,1.39a12.57,12.57,0,0,0-4.63,3A13.21,13.21,0,0,0,1.35,9,18.61,18.61,0,0,0,.13,15.37C0,18.14,0,19,0,26.1s0,8,.16,10.77A18.24,18.24,0,0,0,1.39,43.2a12.65,12.65,0,0,0,3,4.63,13,13,0,0,0,4.63,3,18.83,18.83,0,0,0,6.33,1.23c2.77.13,3.68.16,10.76.16s8,0,10.77-.16a18.72,18.72,0,0,0,6.33-1.23,12.65,12.65,0,0,0,4.63-3,13,13,0,0,0,3-4.63,18.63,18.63,0,0,0,1.23-6.33c.13-2.77.16-3.68.16-10.77s0-8-.16-10.77A18.36,18.36,0,0,0,50.88,9a12.57,12.57,0,0,0-3-4.63,13.21,13.21,0,0,0-4.63-3A19.54,19.54,0,0,0,36.87.16C34.1,0,33.22,0,26.1,0Z"/><path class="cls-1" d="M26.1,12.69A13.42,13.42,0,1,0,39.52,26.1,13.42,13.42,0,0,0,26.1,12.69Zm0,22.13a8.69,8.69,0,1,1,8.69-8.69A8.69,8.69,0,0,1,26.1,34.82Z"/><circle class="cls-1" cx="40.05" cy="12.19" r="3.15"/></g></g></svg>