<svg xmlns="http://www.w3.org/2000/svg" viewBox="0 0 409.87 149.13"><g id="Layer_2" data-name="Layer 2"><g id="Layer_1-2" data-name="Layer 1"><path d="M61.92,87.35h.44a.4.4,0,0,1,.39.25,8.76,8.76,0,0,0,2,3.08,8.86,8.86,0,0,0,6.44,2.56A9.06,9.06,0,0,0,80,84.15V81.63A26.52,26.52,0,0,0,60.82,56.18l-.13-.07a26.29,26.29,0,0,0-7-4,.41.41,0,0,1-.26-.37V44.61a.4.4,0,0,1,.23-.36,8.93,8.93,0,0,0,0-16.08.41.41,0,0,1-.23-.36V26.7A26.72,26.72,0,0,0,26.54,0,26.89,26.89,0,0,0,0,27v81.58a40.65,40.65,0,0,0,11.75,28.76,39.94,39.94,0,0,0,28.47,11.82h5.37a33.58,33.58,0,0,0,33.58-33.58v-2.17a9.06,9.06,0,0,0-9.09-9.09,9,9,0,0,0-8.79,8.93v1.25a8.3,8.3,0,0,1-8.46,8.3,8.34,8.34,0,0,1-8.14-8.3V81.63a8.76,8.76,0,0,1,7-8.55.38.38,0,0,1,.43.21A8.46,8.46,0,0,1,53,76.93v1.48A9,9,0,0,0,61.92,87.35Zm-3.16-4.84a5.16,5.16,0,0,1-2-4.1V76.93a12.55,12.55,0,0,0-.23-2.38.6.6,0,0,1,.87-.64l.51.29a.62.62,0,0,1,.24.29A22,22,0,0,1,59.73,82,.6.6,0,0,1,58.76,82.51ZM54.9,36.21H53.69a.31.31,0,0,1-.3-.3V33.39a.31.31,0,0,1,.55-.18A5.18,5.18,0,0,1,54.9,36.21ZM51.51,69.3A16.91,16.91,0,0,0,36.25,86.13v26.69A13.72,13.72,0,0,0,50,126.54h3.69v0a12,12,0,0,0,7.66-3.31,12.32,12.32,0,0,0,3.74-8.92v-1.06a5.17,5.17,0,0,1,3.36-4.84A1.19,1.19,0,0,1,70,109.5v10.22A25.63,25.63,0,0,1,44.4,145.36H40.22A36.46,36.46,0,0,1,3.76,108.9V27A23.14,23.14,0,0,1,26.56,3.76c16.78,0,18,16.11,18,29.26V55.78a1.2,1.2,0,0,1-.77,1.12c-.57.22-1.13.46-1.68.71a1.19,1.19,0,0,1-1.35-.23,5.18,5.18,0,0,1-1.52-3.66c0-.06,0-.11,0-.16s0-.11,0-.16h0V26.7A12.6,12.6,0,0,0,26.7,14.12h-2A15.56,15.56,0,0,0,9.16,29.67v82.8a1.93,1.93,0,0,0,1.76,1.94,1.89,1.89,0,0,0,2-1.88V51.07a20,20,0,0,1,4.51-12.66h0A20,20,0,0,1,33,31h1.34a1.2,1.2,0,0,1,1.2,1.2V35a1.2,1.2,0,0,1-1.2,1.2h-.8A15.52,15.52,0,0,0,18,51.67V80h0v32.46a1.92,1.92,0,0,0,1.75,1.94,1.89,1.89,0,0,0,2-1.88V76.93a22.84,22.84,0,0,1,14-21,9,9,0,0,0,2.27,4A26.47,26.47,0,0,0,26.81,81.63v31.53a1.92,1.92,0,0,0,1.75,1.94,1.88,1.88,0,0,0,2-1.88V81.63A22.73,22.73,0,0,1,42.06,61.89a1.88,1.88,0,0,0,.59-.32,22.44,22.44,0,0,1,7.48-2.43c8.08-1.08,22.9,2.8,21.06,29.07a1.19,1.19,0,0,1-1.5,1.07A5.14,5.14,0,0,1,67.48,88a5.35,5.35,0,0,1-1.6-3.86V81.8a12.81,12.81,0,0,0-3.81-9.07,12.29,12.29,0,0,0-8.89-3.58A11.39,11.39,0,0,0,51.51,69.3Zm-16-42.45v0a.4.4,0,0,1-.4.4H33a23.63,23.63,0,0,0-14.45,4.9.4.4,0,0,1-.64-.32V26.7a8.83,8.83,0,0,1,8.66-8.82A9,9,0,0,1,35.51,26.85Zm0,18.7v6.22a.4.4,0,0,1-.26.37,26.9,26.9,0,0,0-7.56,4.35.4.4,0,0,1-.65-.31V51.07A5.93,5.93,0,0,1,33,45.15h2.14A.4.4,0,0,1,35.51,45.55Z"/><path d="M102.47,72.17l-.33,0A51.26,51.26,0,0,0,92.78,72a2.69,2.69,0,0,1-2.25-1,2.74,2.74,0,0,1-.6-2.38c2.88-13.36,5-25.44,6.44-36.93a2.73,2.73,0,0,1,2.83-2.41c8.31.31,15.35.24,24.3-.26a2.76,2.76,0,0,1,2.88,2.45A280.62,280.62,0,0,0,133,68.57,2.75,2.75,0,0,1,130.14,72a51.63,51.63,0,0,0-9.26,0,2.75,2.75,0,0,1-3-2.44c-.28-2.58-.52-4.79-.93-5.23s-2.08-.29-3.82-.27h-2.47c-2.27,0-4,0-4.56.43-.66.59-.81,3.67-.87,5a2.77,2.77,0,0,1-2.74,2.64Zm-5.52-4q2.51,0,4.65.21c.21-3.36.65-5.36,2.08-6.61s3.58-1.34,7-1.34h2.43c3.22,0,5.16,0,6.53,1.44,1.15,1.24,1.42,3,1.8,6.44a55,55,0,0,1,7.74-.06,282.86,282.86,0,0,1-6.31-35.47c-8.37.45-15.14.52-23,.24-1.42,11-3.42,22.55-6.13,35.23C94.88,68.2,95.94,68.17,97,68.17Zm25.79-36.25Zm-11.12,23.6c-3.09,0-5.33,0-6.67-1.56s-1.1-3.9-.58-7.57c.8-5.76,1.45-6.89,7.19-6.89h.12c2.17,0,3.76,0,5,1.21s1.47,2.8,1.78,5.92l.06.59c.33,3.46.52,5.36-.78,6.8S114.4,55.52,111.62,55.52Zm-3.9-4a14.26,14.26,0,0,0,3.9.29,10.59,10.59,0,0,0,3.38-.29,16.38,16.38,0,0,0-.15-4l-.06-.6c-.26-2.69-.52-3.47-.7-3.64a9,9,0,0,0-2.41-.16h-.12a10.18,10.18,0,0,0-2.85.22,14,14,0,0,0-.71,3.5h0C107.83,48.12,107.43,51,107.72,51.54Z"/><path d="M192.86,72.17c-7.06,0-11.42-.35-15-1.18a2.74,2.74,0,0,1-2.07-3.22,39.9,39.9,0,0,0,.83-8,2.74,2.74,0,0,1,3.64-2.6,33.23,33.23,0,0,0,10.67,1.3c1.31,0,3.91,0,5.42-.18-1.13-.26-3.05-.5-5.18-.77l-.15,0-.17,0-.76-.15C180,55.75,175.88,51.6,175.88,43c0-10.23,5.2-14.41,18-14.41a54.32,54.32,0,0,1,14,1.6,2.74,2.74,0,0,1,1.77,1.29,2.71,2.71,0,0,1,.27,2.17,25.71,25.71,0,0,0-.91,8.09A2.74,2.74,0,0,1,208,44a2.71,2.71,0,0,1-2.37.54A43.51,43.51,0,0,0,195,43.31a25.76,25.76,0,0,0-5.16.31,23.09,23.09,0,0,0,5.57,1.08l.14,0,.82.16C206.1,46.24,211,48.68,211,58.19,211,70,204.92,72.17,192.86,72.17Zm-13.33-4.56a69.87,69.87,0,0,0,13.33.89c11.8,0,14.51-1.93,14.51-10.31,0-6.06-1.67-8.31-11.53-9.69h-.09l-.8-.15c-5.42-.66-9-1.35-9-4.77,0-3.93,4.39-3.93,9-3.93a46.7,46.7,0,0,1,10.31,1.06,28.74,28.74,0,0,1,.82-7.11,50.45,50.45,0,0,0-12.31-1.3c-12,0-14.29,3.77-14.29,10.74,0,6.77,2.71,9.38,11.14,10.71l.07,0,.86.16c6.26.8,9.11,1.16,9.21,4.37v.06c0,3.82-3.93,3.82-9.89,3.82A39.13,39.13,0,0,1,180.25,61,45.62,45.62,0,0,1,179.53,67.61Z"/><path d="M225.47,71.87A2.75,2.75,0,0,1,222.72,69c.3-7.74.53-16,.18-23.8V45c0-.36,0-.78-.07-1a5.49,5.49,0,0,0-.89-.05,73.06,73.06,0,0,0-7.91.38,2.74,2.74,0,0,1-3-3.12,52.6,52.6,0,0,0,.47-9.18,2.79,2.79,0,0,1,.82-2,2.83,2.83,0,0,1,2-.79c11.61.5,22.9.45,33.54-.14a2.75,2.75,0,0,1,2.18.9,2.7,2.7,0,0,1,.68,2.26h0a60.06,60.06,0,0,0-.55,9.45,2.8,2.8,0,0,1-.9,2.05,2.77,2.77,0,0,1-2.13.7,58.49,58.49,0,0,0-6.87-.31h-.64a9.1,9.1,0,0,0-1.24,0,3.44,3.44,0,0,0-.09.79c-.2,6.74,0,17,.41,23.91a2.73,2.73,0,0,1-.79,2.1,2.79,2.79,0,0,1-2.1.82,76.41,76.41,0,0,0-10.16.13Zm-3.54-31.64c4.07,0,4.5,2.08,4.62,4.6V45c.34,7.61.15,15.57-.14,23.09A82.08,82.08,0,0,1,235,68c-.39-6.95-.55-16.72-.35-23.21.08-4.42,3.29-4.4,5-4.42h.63c1.56,0,3.47,0,6.24.24a65.14,65.14,0,0,1,.45-7.9c-10.14.52-20.82.57-31.81.12a56.28,56.28,0,0,1-.38,7.68C217,40.33,219.33,40.23,221.93,40.23Z"/><path d="M306.27,71.88l-.33,0a52.27,52.27,0,0,0-9.36-.15,2.76,2.76,0,0,1-2.85-3.33c2.88-13.27,5-25.26,6.44-36.68A2.74,2.74,0,0,1,303,29.3a242.07,242.07,0,0,0,24.3-.25,2.75,2.75,0,0,1,2.88,2.44,277.35,277.35,0,0,0,6.63,36.82,2.75,2.75,0,0,1-2.87,3.42,51.51,51.51,0,0,0-9.25,0,2.75,2.75,0,0,1-3-2.43c-.29-2.57-.53-4.76-.94-5.2s-2.07-.28-3.82-.27h-2.47c-2.26,0-4.05,0-4.55.42-.67.59-.81,3.64-.87,5a2.75,2.75,0,0,1-1,2A2.72,2.72,0,0,1,306.27,71.88Zm-5.51-4c1.67,0,3.21.07,4.65.2.2-3.33.64-5.31,2.07-6.56s3.58-1.33,7-1.33h2.44c3.21,0,5.16,0,6.53,1.43,1.14,1.23,1.41,3,1.79,6.4A55,55,0,0,1,333,68a283.26,283.26,0,0,1-6.31-35.23c-8.37.44-15.13.51-22.94.24-1.42,10.93-3.43,22.4-6.13,35C298.68,67.94,299.74,67.91,300.76,67.91Zm25.78-36ZM315.42,55.34c-3.09,0-5.32,0-6.66-1.54s-1.1-3.88-.58-7.53c.79-5.72,1.45-6.84,7.19-6.84h.11c2.18,0,3.76,0,5,1.2s1.47,2.78,1.77,5.88l.06.59c.33,3.43.52,5.33-.78,6.76S318.2,55.34,315.42,55.34Zm-3.9-4a14.26,14.26,0,0,0,3.9.29,10.55,10.55,0,0,0,3.38-.29,15.62,15.62,0,0,0-.15-3.93l-.06-.6c-.26-2.67-.52-3.44-.69-3.62a9.18,9.18,0,0,0-2.42-.15h-.11a10.61,10.61,0,0,0-2.85.21,13.52,13.52,0,0,0-.71,3.48h0C311.63,48,311.23,50.8,311.52,51.39Z"/><path d="M354.8,72.33c-13.8,0-18.93-5.85-18.93-21.56s5.41-22.09,18.66-22.09a56.08,56.08,0,0,1,11.75.87,2.76,2.76,0,0,1,2.14,3.06h0a51,51,0,0,0-.41,9.1,2.75,2.75,0,0,1-3.16,2.84,43,43,0,0,0-7.05-.49c-6.44,0-7.3,1.39-7.3,6.93,0,3.21.3,4.82,1,5.55s2.5,1.05,5.83,1.05a38.93,38.93,0,0,0,7.79-.6,2.74,2.74,0,0,1,3.22,2.92,40.74,40.74,0,0,0,.37,8.42,2.74,2.74,0,0,1-2.25,3A61.13,61.13,0,0,1,354.8,72.33Zm-.27-40c-11.21,0-15,4.65-15,18.43s3.56,17.89,15.26,17.89A57.91,57.91,0,0,0,365,67.92a44.06,44.06,0,0,1-.35-7.13,43.66,43.66,0,0,1-7.29.47c-8.27,0-10.53-2.21-10.53-10.27,0-7.82,2.87-10.6,11-10.6a46.5,46.5,0,0,1,6.51.39,56.14,56.14,0,0,1,.37-7.81A59.26,59.26,0,0,0,354.53,32.34Z"/><path d="M384.56,71.87A2.75,2.75,0,0,1,381.8,69c.31-7.74.53-16,.18-23.8V45c0-.36,0-.78-.07-1a5.43,5.43,0,0,0-.88-.05,73.13,73.13,0,0,0-7.92.38,2.68,2.68,0,0,1-2.27-.82,2.74,2.74,0,0,1-.74-2.3,52.57,52.57,0,0,0,.48-9.18,2.74,2.74,0,0,1,.81-2,2.83,2.83,0,0,1,2.05-.79c11.61.5,22.9.45,33.54-.14a2.76,2.76,0,0,1,2.87,3.16h0a60,60,0,0,0-.56,9.45,2.75,2.75,0,0,1-3,2.75,58.34,58.34,0,0,0-6.86-.31h-.65a9.18,9.18,0,0,0-1.24,0,3.44,3.44,0,0,0-.09.79c-.2,6.74,0,17,.41,23.91a2.73,2.73,0,0,1-.79,2.1,2.78,2.78,0,0,1-2.1.82,76.41,76.41,0,0,0-10.16.13ZM381,40.23c4.07,0,4.49,2.08,4.61,4.6V45c.35,7.61.15,15.57-.13,23.09A81.92,81.92,0,0,1,394.1,68c-.39-6.95-.54-16.72-.35-23.21.08-4.35,3.19-4.42,4.92-4.42h.71a59.5,59.5,0,0,1,6.23.24,65.14,65.14,0,0,1,.45-7.9c-10.13.52-20.82.57-31.81.12a56.28,56.28,0,0,1-.38,7.68C376.06,40.33,378.41,40.23,381,40.23Z"/><path d="M117.57,120.5c-13.79,0-18.92-5.84-18.92-21.55s5.4-22.1,18.65-22.1a56.08,56.08,0,0,1,11.75.87,2.75,2.75,0,0,1,2.14,3.06h0a52.1,52.1,0,0,0-.41,9.11,2.71,2.71,0,0,1-.91,2.17,2.75,2.75,0,0,1-2.25.67,42.78,42.78,0,0,0-7-.5c-6.44,0-7.3,1.4-7.3,6.93,0,3.22.3,4.83,1,5.55s2.5,1.06,5.83,1.06a38.16,38.16,0,0,0,7.78-.61,2.73,2.73,0,0,1,2.33.67,2.78,2.78,0,0,1,.9,2.26,40,40,0,0,0,.37,8.41,2.73,2.73,0,0,1-2.25,3A61.24,61.24,0,0,1,117.57,120.5Zm-.27-40c-11.21,0-15,4.65-15,18.43s3.57,17.89,15.26,17.89a57,57,0,0,0,10.22-.75,42.82,42.82,0,0,1-.36-7.13,42.5,42.5,0,0,1-7.28.47c-8.27,0-10.54-2.21-10.54-10.27,0-7.82,2.87-10.59,11-10.59a48,48,0,0,1,6.5.38,56.29,56.29,0,0,1,.37-7.81A60.37,60.37,0,0,0,117.3,80.52Z"/><path d="M139.41,119.92a2.74,2.74,0,0,1-2.74-2.86c.42-10.41.51-28.68,0-36.64a2.75,2.75,0,0,1,2.85-2.93,87.18,87.18,0,0,0,10.25-.16h0a2.74,2.74,0,0,1,2.94,3,212.7,212.7,0,0,0-.85,24c0,.36,0,1.23.06,1.73l.8,0a91,91,0,0,0,13.62-.68,2.76,2.76,0,0,1,3.13,2.87,42,42,0,0,0,.37,8.41,2.73,2.73,0,0,1-.66,2.22,2.79,2.79,0,0,1-2.11.92c-8.41-.18-18.16-.34-27.51.09Zm1-38.73c.46,8.33.39,24.65,0,35,8.76-.35,17.77-.23,25.68-.06a44.72,44.72,0,0,1-.3-7,102.42,102.42,0,0,1-13.05.56c-4.22,0-4.52-2-4.52-5.38a219.08,219.08,0,0,1,.76-23.31C146.16,81.23,143.23,81.28,140.37,81.19ZM150,81Z"/><path d="M185.66,119.93h-.21a68.86,68.86,0,0,0-9.44,0,2.74,2.74,0,0,1-2.91-2.83c.36-11.31,0-26.5-.23-36.56a2.74,2.74,0,0,1,2.84-2.8c3.36.1,6.64,0,9.74-.17a2.73,2.73,0,0,1,2.94,2.86h0c-.48,10.52-.47,22.53,0,36.7a2.73,2.73,0,0,1-2.74,2.84Zm-5-3.85c1.4,0,2.76,0,4.09.12-.44-13.38-.45-24.83,0-34.95-2.62.15-5.35.2-8.14.13.23,9.78.55,23.87.24,34.8C178.09,116.12,179.37,116.08,180.62,116.08Z"/><path d="M196.65,119.91a2.73,2.73,0,0,1-2.75-2.84c.3-8.37.23-19.39.16-30,0-2.26,0-4.49,0-6.65a2.77,2.77,0,0,1,.86-2,2.83,2.83,0,0,1,2.07-.75,69.37,69.37,0,0,0,11-.19,2.75,2.75,0,0,1,2.94,2.09h0a88,88,0,0,0,5.94,16.83,1.6,1.6,0,0,1,.1.23c.06.13.2.47.32.73.07-.15.17-.38.31-.76a1.66,1.66,0,0,1,.15-.33c1.94-3.76,4.29-11.1,5.76-16.71a2.72,2.72,0,0,1,2.89-2,83.25,83.25,0,0,0,11.32.14,2.73,2.73,0,0,1,2.05.77,2.77,2.77,0,0,1,.84,2c-.22,11.89.06,28.18.45,36.46a2.74,2.74,0,0,1-2.89,2.87c-3.39-.19-7-.14-10-.07a2.81,2.81,0,0,1-2-.79,2.77,2.77,0,0,1-.82-2c0-2.4.19-5,.33-7.49.11-1.94.22-3.81.27-5.55a77,77,0,0,0-3.21,7.4A2.75,2.75,0,0,1,220,113a30.21,30.21,0,0,0-5.63.13,2.75,2.75,0,0,1-2.91-2,38.66,38.66,0,0,0-2.78-7c0,3.38.15,6.71.3,10.19,0,.87.07,1.76.11,2.64a2.76,2.76,0,0,1-.79,2,2.73,2.73,0,0,1-2,.82c-3.48-.08-6.57,0-9.46.08Zm1-38.58c0,1.86,0,3.76,0,5.67.06,10.28.13,20.9-.14,29.21,2.41-.09,5-.11,7.75-.06,0-.56-.05-1.12-.07-1.67-.19-4.5-.37-8.75-.29-13.2,0-2.51,1.5-3,2.75-3a2.9,2.9,0,0,1,2.6,1.59,38.59,38.59,0,0,1,4.39,9.56,33,33,0,0,1,4.8-.11c2-4.89,3.16-7.57,4.48-9.23a3.35,3.35,0,0,1,2.75-1.65c1.21,0,2.68.52,2.85,3v.06c0,.06,0,.13,0,.19,0,2.46-.17,5.28-.32,8-.12,2.13-.25,4.33-.3,6.38,2.58-.06,5.46-.08,8.31,0-.36-8.35-.61-23.31-.43-34.71a88.56,88.56,0,0,1-10.08-.14c-1.42,5.31-3.72,12.57-5.82,16.67-.42,1.16-1.21,3.25-3.84,3.25-2.3,0-3.06-1.78-3.6-3.11a91.82,91.82,0,0,1-6-16.84A73,73,0,0,1,197.69,81.33Zm29.49,20.6Zm-20.1-.4h0Zm3.2-1.76h0ZM213.55,98h0Zm0-.08h0Zm7.42,0h0Z"/><path d="M302.12,119.93h-.21a68.86,68.86,0,0,0-9.44,0,2.74,2.74,0,0,1-2.91-2.83c.36-11.31,0-26.5-.23-36.56a2.74,2.74,0,0,1,2.84-2.8c3.37.1,6.64,0,9.74-.17a2.79,2.79,0,0,1,2.12.77,2.74,2.74,0,0,1,.82,2.09h0c-.48,10.52-.47,22.53,0,36.7a2.73,2.73,0,0,1-2.74,2.84Zm-5-3.85c1.4,0,2.76,0,4.09.12-.44-13.38-.45-24.83,0-34.95-2.62.15-5.34.2-8.13.13.23,9.78.54,23.87.23,34.8C294.55,116.12,295.83,116.08,297.08,116.08Zm4.11-35.85Z"/><path d="M313.53,119.9a2.73,2.73,0,0,1-2.74-2.84c.47-13.4.45-25.34-.05-36.5a2.75,2.75,0,0,1,.79-2,2.79,2.79,0,0,1,2-.82,94.83,94.83,0,0,0,11.53-.44h0a2.76,2.76,0,0,1,2.75,1.55c3.38,7,7.25,13.75,10.08,18.64l.49.85a109.87,109.87,0,0,0-1.28-17.82,2.73,2.73,0,0,1,.65-2.37,2.78,2.78,0,0,1,2.29-.9,85.22,85.22,0,0,0,10.32.17,2.83,2.83,0,0,1,2.09.86,2.76,2.76,0,0,1,.74,2.14,292.17,292.17,0,0,0-.85,36.59,2.78,2.78,0,0,1-.86,2.1,2.71,2.71,0,0,1-2.14.73,73.15,73.15,0,0,0-11.52-.08,2.76,2.76,0,0,1-2.6-1.45,178.11,178.11,0,0,0-10.5-17.32c.18,5.38.51,10.9.95,15.79a2.77,2.77,0,0,1-.77,2.17,2.74,2.74,0,0,1-2.15.81,51.69,51.69,0,0,0-9,.18Zm.92-38.52c.44,10.68.46,22.08,0,34.76A56.52,56.52,0,0,1,322,116c-.46-5.42-.79-11.51-.94-17.27a3.51,3.51,0,0,1,.71-2.77,2.58,2.58,0,0,1,1.92-.73c1.77,0,2.76,1.61,3.2,2.33A176,176,0,0,1,338.2,116a77.37,77.37,0,0,1,10.47,0,298.88,298.88,0,0,1,.81-35c-2.48.07-5.47.09-8.54-.12A124.43,124.43,0,0,1,342,100.8c0,3.17-2.11,3.42-2.75,3.42a2.94,2.94,0,0,1-2.68-1.71c-.51-.9-1.15-2-1.86-3.24-2.63-4.54-6.56-11.33-9.94-18.31A102.19,102.19,0,0,1,314.45,81.38Zm23.16,34.67ZM326.82,97.52h0Z"/><path d="M377,120.66c-16.59,0-19.73-7.93-19.73-22.57,0-17.76,8.4-21.4,21-21.4a57.1,57.1,0,0,1,13.63,1.5,2.76,2.76,0,0,1,2,3.28h0a45.83,45.83,0,0,0-1.06,8,2.75,2.75,0,0,1-3.23,2.58,55,55,0,0,0-9.81-.79c-3.06,0-5.3.07-6.32,1s-1.47,3.23-1.47,7.49c0,3.24.39,5.23,1.2,6.07.65.67,1.88.94,4.4,1a26.26,26.26,0,0,0,5.15-.32l.06,0c.09,0,.21-.18.29-.48l-.58,0c-1.65,0-3.57,0-5.16,0a2.76,2.76,0,0,1-2.08-.83,2.72,2.72,0,0,1-.78-2.09c.12-1.87.09-4.34,0-6.29a2.74,2.74,0,0,1,.8-2,2.78,2.78,0,0,1,2-.8c3.71.08,10.89.09,15.43-.22a2.73,2.73,0,0,1,2,.67,2.69,2.69,0,0,1,.93,1.89c.61,9.33.35,15.88-2.84,19.71C390.22,119.32,385.6,120.66,377,120.66Zm1.29-40.3C366.8,80.36,361,83.1,361,98.09,361,111.42,363.19,117,377,117c7.36,0,11.15-1,13.1-3.31,2.31-2.79,2.53-8.5,2.06-16.23-4.26.24-10.19.25-13.88.19,0,1.54,0,3.17,0,4.64,1.44,0,3-.05,4.42,0h0c1.85.08,4.16.19,4.16,3.06a4.54,4.54,0,0,1-2.83,4.58,26.18,26.18,0,0,1-6.42.53c-6.14-.06-9.24-1.73-9.24-10.7,0-11,3.31-12.15,11.45-12.15a60.94,60.94,0,0,1,9.44.68,49.57,49.57,0,0,1,.89-6.74A54.18,54.18,0,0,0,378.31,80.36Z"/><path d="M279.81,45.45c0-7.28-3.87-8.28-8.06-8.28-6.59,0-7.1,3-7.15,7.94v0c0,3.22,0,5,1,6.21s2.54,1.32,5,1.32h1.82C276.91,52.66,279.74,49.91,279.81,45.45ZM272.45,49h-1a22.79,22.79,0,0,1-3-.1,25.14,25.14,0,0,1-.15-3.76c0-1.42,0-3.18.44-3.73.19-.26.87-.58,3.05-.58,3.27,0,4.4.23,4.4,4.59C276.11,47.82,274.9,49,272.45,49Z"/><path d="M291.81,67c-.08-4.65-.17-10.32-5.77-11.93,4-1.72,5.65-5.24,5.65-11.74,0-4.77-.61-8.46-3.62-11s-8.06-3.53-17.29-3.53a99,99,0,0,0-15.45.9,2.75,2.75,0,0,0-2.3,2.87,290.28,290.28,0,0,1-.12,36.18,2.73,2.73,0,0,0,3,2.92,56.22,56.22,0,0,1,9.29,0,2.75,2.75,0,0,0,2.93-3.09,39.68,39.68,0,0,1-.25-5c0-1.7.29-1.88.29-1.89a11.93,11.93,0,0,1,3.51-.25h1a8.16,8.16,0,0,1,2.37.16s.29.35.29,2.15c0,2.13,0,3.14-.15,5.09a2.75,2.75,0,0,0,2.92,2.9,69.58,69.58,0,0,1,10.7.08,1.51,1.51,0,0,0,.3,0A2.76,2.76,0,0,0,291.86,69C291.83,68.3,291.82,67.63,291.81,67Zm-8.4.91c-1.57,0-3.12.05-4.5.12.07-1.42.1-2.48.1-4.28s-.17-3.55-1.38-4.75-3-1.24-5-1.22h-1c-2.43,0-4,0-5.32.74-1.89,1.07-2.14,3.16-2.14,5.07,0,1.75,0,3.12.16,4.35a58.71,58.71,0,0,0-7.75,0,293.22,293.22,0,0,0,.11-34.75,100.59,100.59,0,0,1,14-.73c8.08,0,12.69.83,15,2.69,1.67,1.4,2.3,3.62,2.3,8.16,0,5.65-1.29,7.51-3.4,8.39h0l-.36.13c-2.8,1.21-3.75,5.63.43,6.66,3,.68,3.35,3,3.45,8.55,0,.34,0,.68,0,1C286.69,67.93,285,67.88,283.41,67.88Z"/><path d="M153.68,50.4c3.38,0,8.49,0,8.49-7.1s-5-7.1-8.28-7.1c-3,0-4.95.07-6.2,1.36s-1.22,3-1.22,5.9c0,.33,0,.63,0,.92,0,1.83,0,3.41,1.13,4.59S150.65,50.4,153.68,50.4Zm-3.55-6v-1a14.4,14.4,0,0,1,.19-3.35,15.44,15.44,0,0,1,3.57-.24c3.81,0,4.62.11,4.62,3.43,0,3.05-.54,3.44-4.83,3.44-2.55,0-3.27-.22-3.47-.34A9.91,9.91,0,0,1,150.13,44.42Z"/><path d="M169.16,51.44c3.56-1.25,4.62-3.7,4.62-9.38,0-6.2-1.44-9.77-4.68-11.58-2.9-1.74-6.93-2-15.42-2a114.29,114.29,0,0,0-16.6,1.19,2.72,2.72,0,0,0-2.33,2.86c.62,11.66.7,23.91.25,36.41a2.75,2.75,0,0,0,2.65,2.85c5.27.18,10.68.18,16.4.18,17.8,0,20.81-2.73,20.81-10.91C174.86,54.62,172.94,52.3,169.16,51.44Zm.21,14.9c-2.21,1.33-7.08,2-15.32,2-5.35,0-10.43,0-15.35-.15.41-12,.32-23.76-.25-35a113,113,0,0,1,15.23-1c7.65,0,11.42.22,13.56,1.51l.06,0c1.31.73,2.82,2.34,2.82,8.39,0,4.77-.51,5.62-2.73,6.14-3.14.86-4,5.9.38,6.69a4,4,0,0,1,2.26.89c.78.77,1.16,2.48,1.16,5.26C171.19,64.14,170.92,65.41,169.37,66.34Z"/><path d="M153.78,53.18c-3.4,0-5.11.2-6.24,1.33s-1.08,2.53-1.07,4.2v.44c0,2.35,0,4.2,1.42,5.39s3.11,1.07,5.89,1.07c5,0,8.82-.44,8.82-6C162.6,53.63,159.11,53.18,153.78,53.18Zm0,8.76a18.18,18.18,0,0,1-3.5-.19,13.31,13.31,0,0,1-.15-2.6v-.46a12.09,12.09,0,0,1,.06-1.6,15.08,15.08,0,0,1,3.59-.24c5.16,0,5.16.32,5.16,2.79C158.94,61.46,158.94,61.94,153.78,61.94Z"/><path d="M264.27,98.57c3.38,0,8.49,0,8.49-7.09s-5-7.1-8.28-7.1c-3,0-5,.06-6.2,1.35s-1.22,3-1.22,5.91c0,.32,0,.63,0,.92,0,1.83,0,3.41,1.13,4.58S261.24,98.57,264.27,98.57Zm-3.55-6v-1a14.35,14.35,0,0,1,.19-3.35,14.83,14.83,0,0,1,3.57-.25c3.81,0,4.62.12,4.62,3.44,0,3-.54,3.43-4.83,3.43-2.55,0-3.27-.22-3.47-.33A10,10,0,0,1,260.72,92.6Z"/><path d="M279.75,99.62c3.56-1.25,4.62-3.71,4.62-9.38,0-6.2-1.44-9.78-4.67-11.58-2.91-1.74-6.94-2-15.43-2a114.06,114.06,0,0,0-16.6,1.18,2.72,2.72,0,0,0-2.33,2.86c.62,11.67.71,23.92.25,36.42a2.77,2.77,0,0,0,.74,2,2.69,2.69,0,0,0,1.91.87c5.27.19,10.68.19,16.4.19,17.8,0,20.81-2.73,20.81-10.92C285.45,102.8,283.53,100.48,279.75,99.62Zm.21,14.9c-2.21,1.32-7.08,1.94-15.32,1.94-5.35,0-10.43,0-15.35-.15.41-12,.32-23.75-.25-35a113,113,0,0,1,15.23-1c7.65,0,11.42.22,13.56,1.51l.06,0c1.31.72,2.82,2.33,2.82,8.39,0,4.77-.51,5.62-2.73,6.14-3.14.86-4,5.9.38,6.69a4.09,4.09,0,0,1,2.26.88c.78.77,1.16,2.49,1.16,5.26C281.78,112.32,281.51,113.59,280,114.52Z"/><path d="M264.37,101.36c-3.4,0-5.11.19-6.24,1.33s-1.08,2.52-1.07,4.19v.45c0,2.34,0,4.19,1.42,5.39,1.27,1.06,3.11,1.06,5.89,1.06,5,0,8.82-.44,8.82-6C273.19,101.81,269.7,101.36,264.37,101.36Zm0,8.76a17.13,17.13,0,0,1-3.49-.2,12.35,12.35,0,0,1-.16-2.59v-.46a12.09,12.09,0,0,1,.06-1.6,14.86,14.86,0,0,1,3.59-.25c5.16,0,5.16.32,5.16,2.79C269.53,109.63,269.53,110.12,264.37,110.12Z"/></g></g></svg>