<svg xmlns="http://www.w3.org/2000/svg" viewBox="0 0 106.13 197.84"><g id="Layer_2" data-name="Layer 2"><g id="Layer_1-2" data-name="Layer 1"><path d="M82.14,115.88h.59a.5.5,0,0,1,.51.34A12.18,12.18,0,0,0,86,120.3a11.8,11.8,0,0,0,8.55,3.38,12,12,0,0,0,11.61-12V108.3A35.18,35.18,0,0,0,80.69,74.53a.56.56,0,0,1-.17-.09,34.83,34.83,0,0,0-9.34-5.24.54.54,0,0,1-.35-.5V59.18a.54.54,0,0,1,.31-.48,11.85,11.85,0,0,0,0-21.33.54.54,0,0,1-.31-.48V35.42A35.44,35.44,0,0,0,35.21,0,35.68,35.68,0,0,0,0,35.78V144a54,54,0,0,0,15.58,38.16,53.06,53.06,0,0,0,37.78,15.67h7.13A44.54,44.54,0,0,0,105,153.29v-2.87A12,12,0,0,0,93,138.35a11.88,11.88,0,0,0-11.66,11.86v1.65a11,11,0,0,1-11.22,11,11.08,11.08,0,0,1-10.8-11V108.3A11.64,11.64,0,0,1,68.63,97a.51.51,0,0,1,.57.29,11.25,11.25,0,0,1,1.08,4.82v2A11.87,11.87,0,0,0,82.14,115.88ZM78,109.46A6.85,6.85,0,0,1,75.28,104v-2A16.68,16.68,0,0,0,75,98.9a.8.8,0,0,1,1.16-.85c.22.12.45.25.67.39a.74.74,0,0,1,.32.38,29.22,29.22,0,0,1,2.12,10A.79.79,0,0,1,78,109.46ZM72.83,48h-1.6a.39.39,0,0,1-.4-.39V44.29a.4.4,0,0,1,.73-.23A6.81,6.81,0,0,1,72.83,48Zm-4.5,43.91A22.43,22.43,0,0,0,48.1,114.27v35.4a18.2,18.2,0,0,0,18.2,18.2h4.9v0a15.88,15.88,0,0,0,10.15-4.39,16.34,16.34,0,0,0,5-11.84v-1.4a6.88,6.88,0,0,1,4.46-6.43,1.59,1.59,0,0,1,2.14,1.49v13.56a34,34,0,0,1-34,34H53.36A48.38,48.38,0,0,1,5,144.48V35.78A30.69,30.69,0,0,1,35.24,5C57.5,5,59.17,26.36,59.17,43.81V74a1.6,1.6,0,0,1-1,1.48c-.76.29-1.5.6-2.24.94a1.56,1.56,0,0,1-1.78-.31,6.87,6.87,0,0,1-2-4.85c0-.07,0-.14,0-.21s0-.15,0-.22h0V35.42A16.71,16.71,0,0,0,35.42,18.73H32.8A20.64,20.64,0,0,0,12.16,39.36V149.21a2.54,2.54,0,0,0,2.33,2.57,2.49,2.49,0,0,0,2.66-2.49V67.76a26.5,26.5,0,0,1,6-16.8l0,0a26.54,26.54,0,0,1,20.58-9.77h1.78a1.59,1.59,0,0,1,1.59,1.59v3.6A1.59,1.59,0,0,1,45.52,48H44.46a20.6,20.6,0,0,0-20.6,20.6v37.59h0v43.07a2.54,2.54,0,0,0,2.33,2.57,2.48,2.48,0,0,0,2.66-2.49V102.06A30.3,30.3,0,0,1,47.5,74.25a11.9,11.9,0,0,0,3,5.31A35.13,35.13,0,0,0,35.56,108.3v41.83a2.55,2.55,0,0,0,2.34,2.57,2.49,2.49,0,0,0,2.66-2.49V108.3A30.14,30.14,0,0,1,55.81,82.11a2.54,2.54,0,0,0,.77-.43,29.78,29.78,0,0,1,9.93-3.22C77.22,77,96.88,82.18,94.45,117a1.59,1.59,0,0,1-2,1.43,6.77,6.77,0,0,1-2.94-1.67,7.09,7.09,0,0,1-2.11-5.12v-3.13a17,17,0,0,0-5.07-12,16.32,16.32,0,0,0-11.79-4.74A14.89,14.89,0,0,0,68.33,91.94ZM47.11,35.62v0a.53.53,0,0,1-.53.53H43.74a31.46,31.46,0,0,0-19.17,6.5.53.53,0,0,1-.85-.42V35.42a11.72,11.72,0,0,1,11.49-11.7A11.86,11.86,0,0,1,47.11,35.62Zm0,24.8v8.26a.52.52,0,0,1-.34.49,35.21,35.21,0,0,0-10,5.77.53.53,0,0,1-.86-.41V67.76a7.86,7.86,0,0,1,7.86-7.86h2.84A.52.52,0,0,1,47.11,60.42Z"/></g></g></svg>