<svg xmlns="http://www.w3.org/2000/svg" viewBox="0 0 382.52 110.21"><g id="Layer_2" data-name="Layer 2"><g id="Layer_1-2" data-name="Layer 1"><path d="M15.06,52.24l-.39,0A62,62,0,0,0,3.48,52,3.23,3.23,0,0,1,.79,50.89,3.31,3.31,0,0,1,.08,48c3.43-16,6-30.41,7.69-44.15A3.27,3.27,0,0,1,11.15,1,289.53,289.53,0,0,0,40.2.7a3.29,3.29,0,0,1,3.44,2.93A337.17,337.17,0,0,0,51.57,48a3.3,3.3,0,0,1-3.43,4.11,61.36,61.36,0,0,0-11.06.06,3.29,3.29,0,0,1-3.61-2.93c-.34-3.08-.63-5.72-1.12-6.25-.33-.35-2.48-.34-4.57-.32h-3c-2.71,0-4.84,0-5.44.51-.8.7-1,4.38-1.05,6a3.28,3.28,0,0,1-1.16,2.37A3.25,3.25,0,0,1,15.06,52.24ZM8.47,47.47c2,0,3.84.08,5.56.24.25-4,.77-6.4,2.48-7.89s4.28-1.61,8.33-1.6h2.91c3.85,0,6.17-.05,7.81,1.73,1.36,1.47,1.69,3.62,2.14,7.69A65.93,65.93,0,0,1,47,47.56a340.78,340.78,0,0,1-7.55-42.4c-10,.54-18.09.62-27.42.29-1.7,13.16-4.1,27-7.33,42.11Q6.66,47.47,8.47,47.47ZM39.29,4.13ZM26,32.34c-3.7,0-6.37,0-8-1.86s-1.31-4.66-.69-9.06c.95-6.88,1.73-8.23,8.59-8.23h.14c2.6,0,4.5,0,6,1.45s1.76,3.34,2.12,7.07l.07.71c.4,4.14.62,6.41-.93,8.13S29.32,32.34,26,32.34Zm-4.66-4.75c.55.34,3.12.34,4.66.34a12.59,12.59,0,0,0,4-.34c.23-.57,0-2.69-.18-4.74l-.07-.71c-.31-3.22-.62-4.15-.83-4.36a11,11,0,0,0-2.89-.18h-.14a12.7,12.7,0,0,0-3.4.25c-.32.36-.63,2.57-.85,4.18h0C21.47,23.5,21,26.88,21.34,27.59Z"/><path d="M123.12,52.24c-8.45,0-13.65-.41-18-1.4A3.27,3.27,0,0,1,102.69,47a48.52,48.52,0,0,0,1-9.52A3.28,3.28,0,0,1,108,34.36c3.15,1.09,7.45,1.6,12.76,1.55,1.56,0,4.67,0,6.48-.21-1.36-.31-3.66-.6-6.2-.92l-.18,0-.2,0-.91-.18c-12-1.92-17-6.89-17-17.12C102.82,5.18,109,.19,124.28.19A64.93,64.93,0,0,1,141.06,2.1a3.29,3.29,0,0,1,2.44,4.14,30.83,30.83,0,0,0-1.09,9.67,3.29,3.29,0,0,1-1.22,2.64,3.25,3.25,0,0,1-2.83.65,51.89,51.89,0,0,0-12.67-1.46,30.33,30.33,0,0,0-6.17.38c.68.3,2.39.77,6.66,1.29l.17,0,1,.18c11.61,1.63,17.51,4.55,17.51,15.91C144.84,49.66,137.53,52.24,123.12,52.24Zm-15.94-5.45c3.79.76,8.54,1.07,15.94,1.07,14.1,0,17.34-2.3,17.34-12.33,0-7.24-2-9.93-13.79-11.58h-.1l-1-.18c-6.47-.79-10.72-1.62-10.72-5.7,0-4.7,5.25-4.7,10.8-4.7A55.54,55.54,0,0,1,138,14.63a34.74,34.74,0,0,1,1-8.5,60,60,0,0,0-14.71-1.56c-14.36,0-17.08,4.52-17.08,12.85,0,8.09,3.23,11.2,13.31,12.8l.09,0,1,.19c7.47.95,10.88,1.39,11,5.22v.07c0,4.57-4.71,4.57-11.83,4.57A47,47,0,0,1,108,39,53.65,53.65,0,0,1,107.18,46.79Z"/><path d="M162.1,51.88a3.3,3.3,0,0,1-3.29-3.41c.36-9.25.64-19.11.21-28.45v-.25c0-.43,0-.94-.08-1.26a7.33,7.33,0,0,0-1.06-.06,87.48,87.48,0,0,0-9.46.46,3.28,3.28,0,0,1-3.6-3.73,62.14,62.14,0,0,0,.57-11,3.29,3.29,0,0,1,1-2.43A3.34,3.34,0,0,1,148.8.82c13.88.6,27.37.54,40.1-.16a3.29,3.29,0,0,1,3.42,3.77h0a73.48,73.48,0,0,0-.67,11.3A3.28,3.28,0,0,1,188,19a73.22,73.22,0,0,0-8.21-.37h-.77a10.8,10.8,0,0,0-1.48.06,3.78,3.78,0,0,0-.11.94c-.24,8.06,0,20.34.49,28.59a3.26,3.26,0,0,1-.94,2.51,3.33,3.33,0,0,1-2.51,1,94.54,94.54,0,0,0-12.15.15Zm-4.23-37.81c4.87,0,5.38,2.49,5.52,5.49v.26c.41,9.09.18,18.6-.16,27.6a95.1,95.1,0,0,1,10.28-.13c-.48-8.32-.66-20-.43-27.75.11-5.28,3.94-5.26,6-5.28h.75a73.94,73.94,0,0,1,7.45.28,78.82,78.82,0,0,1,.54-9.44c-12.11.63-24.89.68-38,.15a66.56,66.56,0,0,1-.46,9.17C152,14.18,154.76,14.07,157.87,14.07Z"/><path d="M258.69,51.9a2.56,2.56,0,0,1-.39,0,63.13,63.13,0,0,0-11.2-.18,3.27,3.27,0,0,1-3.4-4c3.44-15.86,6-30.2,7.69-43.85A3.28,3.28,0,0,1,254.78,1c9.94.38,18.35.29,29-.3a3.31,3.31,0,0,1,3.45,2.91,329.31,329.31,0,0,0,7.93,44,3.29,3.29,0,0,1-3.44,4.09,61.38,61.38,0,0,0-11.06.06,3.28,3.28,0,0,1-3.61-2.91c-.34-3.06-.62-5.68-1.11-6.21-.33-.35-2.49-.34-4.57-.32h-3c-2.7,0-4.84,0-5.44.51-.8.69-1,4.35-1,5.91a3.29,3.29,0,0,1-3.28,3.13Zm-6.59-4.75c2,0,3.83.09,5.56.25.24-4,.77-6.36,2.47-7.85S264.42,38,268.46,38h2.92c3.84,0,6.16-.05,7.8,1.72,1.37,1.46,1.69,3.6,2.15,7.64a65.79,65.79,0,0,1,9.25-.07A338,338,0,0,1,283,5.13c-10,.53-18.09.62-27.42.29-1.7,13.07-4.1,26.78-7.33,41.82C249.61,47.18,250.88,47.15,252.1,47.15Zm30.82-43Zm-13.3,28c-3.69,0-6.36,0-8-1.84s-1.32-4.64-.69-9c.94-6.84,1.73-8.18,8.59-8.18h.13c2.61,0,4.5,0,6,1.43s1.75,3.33,2.12,7l.07.71c.4,4.1.62,6.36-.93,8.07S273,32.13,269.62,32.13ZM265,27.41c.54.34,3.11.34,4.65.34a12.59,12.59,0,0,0,4-.34c.23-.57,0-2.67-.17-4.71l-.07-.71c-.32-3.19-.63-4.11-.84-4.32a10.53,10.53,0,0,0-2.89-.18h-.13a12.82,12.82,0,0,0-3.41.25c-.32.35-.62,2.55-.85,4.15h0C265.1,23.35,264.62,26.71,265,27.41Z"/><path d="M316.69,52.43c-16.49,0-22.62-7-22.62-25.76S300.53.26,316.37.26c6.51,0,10.58.3,14.05,1A3.29,3.29,0,0,1,333,5h0a60.7,60.7,0,0,0-.49,10.89,3.3,3.3,0,0,1-1.09,2.59,3.26,3.26,0,0,1-2.69.81,50.22,50.22,0,0,0-8.42-.6c-7.7,0-8.73,1.67-8.73,8.28,0,3.85.36,5.77,1.24,6.64s3,1.26,7,1.26a45.72,45.72,0,0,0,9.3-.72,3.28,3.28,0,0,1,3.85,3.5,48.36,48.36,0,0,0,.45,10,3.28,3.28,0,0,1-2.7,3.65A72.82,72.82,0,0,1,316.69,52.43Zm-.32-47.79c-13.4,0-17.92,5.56-17.92,22s4.26,21.38,18.24,21.38a68.91,68.91,0,0,0,12.21-.89,52.61,52.61,0,0,1-.42-8.52,51.67,51.67,0,0,1-8.7.56c-9.89,0-12.6-2.64-12.6-12.28,0-9.35,3.43-12.66,13.11-12.66a56.2,56.2,0,0,1,7.77.46,67.34,67.34,0,0,1,.44-9.34A71.54,71.54,0,0,0,316.37,4.64Z"/><path d="M352.27,51.88A3.28,3.28,0,0,1,349,48.47c.36-9.25.63-19.11.21-28.45v-.25c0-.43-.05-.94-.09-1.26a7.33,7.33,0,0,0-1.06-.06,87.61,87.61,0,0,0-9.46.46,3.28,3.28,0,0,1-3.6-3.73,63.08,63.08,0,0,0,.58-11,3.26,3.26,0,0,1,1-2.43A3.32,3.32,0,0,1,339,.82c13.88.6,27.37.54,40.09-.16a3.29,3.29,0,0,1,3.43,3.77h0a72.24,72.24,0,0,0-.67,11.3A3.28,3.28,0,0,1,378.2,19a73.13,73.13,0,0,0-8.21-.37h-.76a11,11,0,0,0-1.49.06,3.78,3.78,0,0,0-.11.94c-.23,8.06,0,20.34.5,28.59a3.31,3.31,0,0,1-3.46,3.49,94.57,94.57,0,0,0-12.15.15ZM348,14.07c4.87,0,5.38,2.49,5.52,5.49v.26c.42,9.09.18,18.6-.16,27.6a95.13,95.13,0,0,1,10.28-.13c-.47-8.32-.66-20-.42-27.76.1-5.19,3.81-5.27,5.88-5.27H370a74.12,74.12,0,0,1,7.46.28A77,77,0,0,1,378,5.1c-12.11.63-24.89.68-38,.15a66.56,66.56,0,0,1-.46,9.17C342.11,14.18,344.92,14.07,348,14.07Z"/><path d="M33.12,110c-16.49,0-22.62-7-22.62-25.77S17,57.84,32.79,57.84c6.52,0,10.59.31,14.05,1a3.29,3.29,0,0,1,2.56,3.66h0a61.64,61.64,0,0,0-.49,10.89,3.28,3.28,0,0,1-3.77,3.39,51.56,51.56,0,0,0-8.43-.59C29,76.23,28,77.89,28,84.51c0,3.85.36,5.77,1.25,6.64s3,1.26,7,1.26a46.44,46.44,0,0,0,9.3-.72,3.21,3.21,0,0,1,2.78.79,3.29,3.29,0,0,1,1.08,2.7,47.8,47.8,0,0,0,.44,10.06,3.28,3.28,0,0,1-2.69,3.65A72.88,72.88,0,0,1,33.12,110Zm-.33-47.8c-13.39,0-17.91,5.56-17.91,22s4.26,21.39,18.24,21.39a69,69,0,0,0,12.21-.89,51.5,51.5,0,0,1-.42-8.52,51.86,51.86,0,0,1-8.71.56c-9.89,0-12.6-2.64-12.6-12.28,0-9.35,3.43-12.66,13.11-12.66a56.35,56.35,0,0,1,7.78.46A67.34,67.34,0,0,1,44.93,63,71.54,71.54,0,0,0,32.79,62.22Z"/><path d="M59.23,109.32A3.27,3.27,0,0,1,56,105.91c.5-12.44.6-34.28,0-43.8a3.3,3.3,0,0,1,.93-2.51,3.26,3.26,0,0,1,2.48-1,106.13,106.13,0,0,0,12.26-.2h0A3.28,3.28,0,0,1,75.1,62a254.14,254.14,0,0,0-1,28.7c0,.43,0,1.47.07,2.07l1,0A109.23,109.23,0,0,0,91.39,92a3.28,3.28,0,0,1,3.74,3.42,50.19,50.19,0,0,0,.45,10.06,3.29,3.29,0,0,1-.79,2.65,3.33,3.33,0,0,1-2.53,1.1c-10.05-.21-21.71-.4-32.89.1ZM60.37,63c.55,10,.46,29.47,0,41.86,10.47-.42,21.24-.27,30.7-.07a52.31,52.31,0,0,1-.36-8.32,122.64,122.64,0,0,1-15.6.67c-5,0-5.41-2.43-5.41-6.43a260.9,260.9,0,0,1,.92-27.87C67.29,63.08,63.79,63.13,60.37,63Zm11.55-.25Z"/><path d="M114.51,109.34h-.25a83.09,83.09,0,0,0-11.29,0,3.27,3.27,0,0,1-3.48-3.38c.44-13.53,0-31.68-.27-43.7a3.3,3.3,0,0,1,1-2.41,3.35,3.35,0,0,1,2.42-.95,114.42,114.42,0,0,0,11.65-.2,3.31,3.31,0,0,1,2.53.93,3.23,3.23,0,0,1,1,2.49h0c-.57,12.58-.56,26.93,0,43.88a3.28,3.28,0,0,1-3.28,3.39Zm-6-4.6c1.66,0,3.3.05,4.88.14-.52-16-.53-29.69,0-41.78-3.12.18-6.38.24-9.71.16.27,11.69.65,28.53.28,41.6C105.46,104.78,107,104.74,108.49,104.74Z"/><path d="M127.64,109.32a3.28,3.28,0,0,1-3.28-3.4c.36-10,.28-23.18.19-35.91,0-2.7,0-5.36,0-8A3.29,3.29,0,0,1,128,58.77a82.18,82.18,0,0,0,13.13-.24,3.31,3.31,0,0,1,3.52,2.5h0a104.61,104.61,0,0,0,7.1,20.13l.12.26c.07.17.23.57.38.88a8.69,8.69,0,0,0,.37-.91,3.52,3.52,0,0,1,.17-.39c2.32-4.49,5.13-13.28,6.89-20a3.26,3.26,0,0,1,3.45-2.44,99.61,99.61,0,0,0,13.54.17,3.31,3.31,0,0,1,2.45.92,3.25,3.25,0,0,1,1,2.42c-.26,14.22.08,33.7.54,43.58a3.25,3.25,0,0,1-1,2.49,3.31,3.31,0,0,1-2.49,1c-4.06-.22-8.31-.17-11.94-.08a3.39,3.39,0,0,1-2.4-1,3.32,3.32,0,0,1-1-2.38c0-2.86.22-6,.39-9,.13-2.32.26-4.55.33-6.64A92,92,0,0,0,158.77,99,3.27,3.27,0,0,1,155.5,101a36.21,36.21,0,0,0-6.74.15,3.28,3.28,0,0,1-3.47-2.38A46,46,0,0,0,142,90.46c0,4,.19,8,.36,12.18.05,1,.09,2.1.14,3.17a3.28,3.28,0,0,1-3.36,3.41c-4.16-.09-7.85-.06-11.3.1Zm1.25-46.12c0,2.22,0,4.49,0,6.78.08,12.28.16,25-.15,34.91,2.88-.11,5.92-.13,9.25-.07,0-.67-.05-1.33-.08-2-.23-5.38-.44-10.46-.34-15.78,0-3,1.78-3.63,3.28-3.63a3.47,3.47,0,0,1,3.11,1.9,46.28,46.28,0,0,1,5.25,11.43,39,39,0,0,1,5.74-.13c2.33-5.85,3.77-9,5.35-11a4,4,0,0,1,3.29-2c1.44,0,3.2.61,3.4,3.53v.3c0,2.94-.19,6.31-.38,9.56-.14,2.55-.29,5.17-.36,7.62,3.09-.06,6.54-.09,9.93.06-.42-10-.72-27.87-.51-41.5a102.17,102.17,0,0,1-12-.17c-1.7,6.35-4.45,15-7,19.94-.5,1.38-1.44,3.88-4.58,3.88-2.76,0-3.65-2.13-4.3-3.71A109.79,109.79,0,0,1,140.62,63,86.59,86.59,0,0,1,128.89,63.2Zm35.25,24.62Zm-24-.47Zm3.82-2.12h0Zm3.91-2.07h0Zm0-.09h0Zm8.87-.06h0Z"/><path d="M253.73,109.34h-.25a83.09,83.09,0,0,0-11.29,0,3.27,3.27,0,0,1-3.48-3.38c.44-13.52,0-31.68-.27-43.7a3.28,3.28,0,0,1,1-2.41,3.37,3.37,0,0,1,2.43-.95,114.27,114.27,0,0,0,11.64-.2A3.3,3.3,0,0,1,257,62.07h0c-.57,12.58-.56,26.93,0,43.88a3.28,3.28,0,0,1-3.27,3.39Zm-6-4.6c1.67,0,3.3.05,4.89.14-.53-16-.54-29.69,0-41.78-3.13.18-6.38.24-9.72.16.28,11.69.65,28.53.28,41.6C244.67,104.78,246.2,104.74,247.7,104.74Zm4.91-42.86Z"/><path d="M267.36,109.31a3.32,3.32,0,0,1-2.23-.88,3.25,3.25,0,0,1-1-2.52c.56-16,.54-30.29-.06-43.63a3.28,3.28,0,0,1,3.37-3.43,114.19,114.19,0,0,0,13.78-.53h0a3.3,3.3,0,0,1,3.29,1.85c4,8.43,8.67,16.44,12,22.28l.59,1c0-7.51-.62-16.68-1.54-21.3a3.24,3.24,0,0,1,.78-2.83,3.3,3.3,0,0,1,2.74-1.08,102.88,102.88,0,0,0,12.34.21A3.27,3.27,0,0,1,314.81,62a350.3,350.3,0,0,0-1,43.74,3.29,3.29,0,0,1-1,2.51,3.26,3.26,0,0,1-2.56.89,87,87,0,0,0-13.77-.11,3.25,3.25,0,0,1-3.1-1.73,212.79,212.79,0,0,0-12.56-20.7c.22,6.43.62,13,1.14,18.87a3.28,3.28,0,0,1-3.49,3.57,61.94,61.94,0,0,0-10.71.21Zm1.1-46.06c.53,12.78.55,26.4.05,41.56a65,65,0,0,1,8.93-.17c-.55-6.48-.95-13.76-1.13-20.65a4.18,4.18,0,0,1,.85-3.3,3.1,3.1,0,0,1,2.3-.87c2.11,0,3.3,1.92,3.83,2.78a211,211,0,0,1,13.56,22.05,92.84,92.84,0,0,1,12.52.06,353.86,353.86,0,0,1,1-41.83c-3,.08-6.54.11-10.22-.14a146.59,146.59,0,0,1,1.32,23.73c0,3.79-2.51,4.09-3.28,4.09a3.51,3.51,0,0,1-3.21-2l-2.22-3.87c-3.14-5.42-7.84-13.54-11.88-21.89A116.76,116.76,0,0,1,268.46,63.25Zm27.69,41.45Zm-12.9-22.14h0Z"/><path d="M343.26,110.21c-19.83,0-23.59-9.48-23.59-27,0-21.23,10.05-25.58,25.13-25.58a68.27,68.27,0,0,1,16.29,1.79,3.31,3.31,0,0,1,2.43,3.92h0a54.46,54.46,0,0,0-1.26,9.57A3.29,3.29,0,0,1,358.39,76a66,66,0,0,0-11.73-1c-3.65,0-6.33.09-7.55,1.2s-1.76,3.85-1.76,9c0,3.87.47,6.24,1.44,7.25.77.8,2.25,1.13,5.26,1.16a31,31,0,0,0,6.16-.38l.06,0c.11,0,.26-.22.35-.58l-.7,0c-2,0-4.26,0-6.16.06a3.34,3.34,0,0,1-2.49-1,3.3,3.3,0,0,1-.93-2.51c.15-2.23.1-5.19.05-7.51a3.28,3.28,0,0,1,3.36-3.36c4.44.09,13,.11,18.44-.27a3.3,3.3,0,0,1,3.5,3.07c.72,11.14.41,19-3.4,23.56C359,108.61,353.52,110.21,343.26,110.21ZM344.8,62c-13.76,0-20.74,3.28-20.74,21.2,0,15.94,2.66,22.6,19.2,22.6,8.79,0,13.33-1.14,15.66-4,2.76-3.33,3-10.15,2.47-19.39-5.1.29-12.19.3-16.6.23,0,1.83,0,3.78,0,5.54,1.72,0,3.58-.06,5.28,0h.05c2.21.11,5,.24,5,3.67,0,2.66-1.29,4.76-3.39,5.47-1.46.53-5,.64-7.66.64C336.69,97.93,333,95.94,333,85.22c0-13.21,4-14.53,13.69-14.53A72.7,72.7,0,0,1,358,71.5a58.74,58.74,0,0,1,1.07-8A65.48,65.48,0,0,0,344.8,62Z"/><path d="M227.06,20.31c0-8.7-4.63-9.9-9.64-9.9-7.87,0-8.48,3.58-8.55,9.49v0c0,3.85,0,6,1.2,7.42s3,1.59,6,1.59h2.17C223.59,28.92,227,25.63,227.06,20.31Zm-8.81,4.23H217a26.05,26.05,0,0,1-3.59-.11,30,30,0,0,1-.18-4.5c0-1.69,0-3.8.52-4.46.23-.31,1-.68,3.65-.68,3.91,0,5.26.26,5.26,5.48C222.63,23.14,221.18,24.54,218.25,24.54Z"/><path d="M241.4,46c-.09-5.56-.21-12.34-6.9-14.26,4.81-2.05,6.76-6.26,6.76-14,0-5.71-.74-10.12-4.33-13.13S227.29.39,216.26.39a117.38,117.38,0,0,0-18.47,1.08,3.28,3.28,0,0,0-2.74,3.42,347.67,347.67,0,0,1-.16,43.26,3.33,3.33,0,0,0,1,2.58,3.26,3.26,0,0,0,2.61.91,66,66,0,0,1,11.1,0,3.29,3.29,0,0,0,3.51-3.69,46.13,46.13,0,0,1-.3-6c0-2,.34-2.26.34-2.26.54-.31,2.32-.31,4.2-.31h1.19a10,10,0,0,1,2.83.18s.36.42.36,2.58c0,2.54-.05,3.75-.18,6.08a3.25,3.25,0,0,0,1,2.52,3.31,3.31,0,0,0,2.53,1,82.72,82.72,0,0,1,12.78.1l.37,0a3.28,3.28,0,0,0,3.27-3.4C241.43,47.62,241.41,46.82,241.4,46Zm-10,1.09c-1.88,0-3.74.06-5.38.14.08-1.69.12-3,.12-5.11s-.2-4.25-1.65-5.69-3.57-1.47-6-1.45h-1.15c-2.9,0-4.81,0-6.36.88-2.26,1.28-2.56,3.79-2.56,6.07,0,2.09.06,3.72.19,5.19a73.08,73.08,0,0,0-9.26,0,352,352,0,0,0,.13-41.53,120.4,120.4,0,0,1,16.78-.87c9.66,0,15.17,1,17.87,3.21,2,1.68,2.75,4.32,2.75,9.76,0,6.75-1.54,9-4.06,10h0l-.42.17c-3.35,1.44-4.48,6.72.51,8,3.6.81,4,3.62,4.12,10.23,0,.4,0,.8,0,1.21C235.28,47.18,233.31,47.12,231.36,47.12Z"/><path d="M76.28,26.22c4,0,10.15,0,10.15-8.48s-6-8.49-9.9-8.49c-3.62,0-5.92.08-7.41,1.62s-1.46,3.59-1.46,7.06c0,.39,0,.76,0,1.1,0,2.19,0,4.07,1.35,5.48S72.65,26.22,76.28,26.22ZM72,19.08c0-.36,0-.74,0-1.15a16.87,16.87,0,0,1,.23-4,17.6,17.6,0,0,1,4.26-.3c4.56,0,5.52.14,5.52,4.11,0,3.64-.64,4.1-5.77,4.1-3,0-3.9-.26-4.14-.4A10.94,10.94,0,0,1,72,19.08Z"/><path d="M94.79,27.47C99,26,100.31,23,100.31,16.26c0-7.41-1.73-11.69-5.59-13.85C91.25.34,86.43,0,76.28,0A137.94,137.94,0,0,0,56.44,1.41a3.28,3.28,0,0,0-2.79,3.43c.74,13.94.85,28.58.31,43.52a3.3,3.3,0,0,0,3.16,3.41c6.3.21,12.76.21,19.61.21,21.27,0,24.86-3.25,24.86-13C101.59,31.27,99.31,28.5,94.79,27.47ZM95,45.28c-2.64,1.59-8.45,2.32-18.3,2.32-6.41,0-12.48,0-18.36-.18.49-14.33.39-28.39-.29-41.82a134.64,134.64,0,0,1,18.2-1.22c9.14,0,13.65.26,16.21,1.8l.07.05c1.57.86,3.37,2.79,3.37,10,0,5.7-.61,6.71-3.26,7.33-3.76,1-4.75,7.06.45,8a5,5,0,0,1,2.71,1.06c.93.92,1.38,3,1.38,6.29C97.21,42.65,96.88,44.17,95,45.28Z"/><path d="M76.41,29.55c-4.08,0-6.12.23-7.47,1.59s-1.29,3-1.28,5v.54c0,2.8,0,5,1.7,6.44,1.52,1.27,3.72,1.27,7,1.27,6,0,10.54-.52,10.54-7.13C87,30.09,82.77,29.55,76.41,29.55Zm0,10.47a21.46,21.46,0,0,1-4.19-.23,15.79,15.79,0,0,1-.18-3.1v-.55a17.32,17.32,0,0,1,.06-1.92,18.25,18.25,0,0,1,4.31-.29c6.16,0,6.16.38,6.16,3.34C82.57,39.44,82.57,40,76.41,40Z"/><path d="M208.48,83.81c4,0,10.15,0,10.15-8.49s-6-8.48-9.9-8.48c-3.62,0-5.92.08-7.41,1.62s-1.46,3.59-1.46,7.06c0,.39,0,.75,0,1.1,0,2.18,0,4.07,1.35,5.48S204.85,83.81,208.48,83.81Zm-4.25-7.14c0-.36,0-.74,0-1.15a17.62,17.62,0,0,1,.22-4,17.73,17.73,0,0,1,4.27-.3c4.56,0,5.52.14,5.52,4.1,0,3.65-.65,4.11-5.77,4.11-3,0-3.91-.26-4.14-.4A10.94,10.94,0,0,1,204.23,76.67Z"/><path d="M227,85.06c4.26-1.5,5.53-4.43,5.53-11.21,0-7.42-1.73-11.69-5.59-13.85-3.47-2.08-8.29-2.41-18.44-2.41A136.62,136.62,0,0,0,188.63,59a3.28,3.28,0,0,0-2.78,3.42c.74,14,.84,28.59.3,43.53a3.31,3.31,0,0,0,.88,2.36,3.27,3.27,0,0,0,2.29,1c6.3.22,12.76.22,19.61.22,21.27,0,24.86-3.26,24.86-13C233.79,88.86,231.5,86.09,227,85.06Zm.25,17.81c-2.64,1.58-8.46,2.32-18.3,2.32-6.41,0-12.48,0-18.36-.18.49-14.33.39-28.39-.3-41.82A134.9,134.9,0,0,1,208.48,62c9.14,0,13.65.26,16.21,1.8l.07,0c1.57.87,3.37,2.8,3.37,10,0,5.69-.61,6.71-3.27,7.33-3.75,1-4.75,7,.46,8A4.86,4.86,0,0,1,228,90.24c.93.92,1.38,3,1.38,6.28C229.41,100.24,229.08,101.76,227.23,102.87Z"/><path d="M208.6,87.14c-4.07,0-6.11.23-7.46,1.59s-1.29,3-1.28,5v.54c0,2.8,0,5,1.7,6.44,1.52,1.27,3.72,1.27,7,1.27,6,0,10.55-.52,10.55-7.14C219.15,87.68,215,87.14,208.6,87.14Zm0,10.47a20.53,20.53,0,0,1-4.18-.24,15.69,15.69,0,0,1-.18-3.09v-.55a15.16,15.16,0,0,1,.06-1.92,18.2,18.2,0,0,1,4.3-.29c6.17,0,6.17.38,6.17,3.33C214.77,97,214.77,97.61,208.6,97.61Z"/></g></g></svg>