<svg xmlns="http://www.w3.org/2000/svg" viewBox="0 0 61.86 42.11"><defs><style>.cls-1{fill:#fff;}.cls-2{fill:#222;}</style></defs><g id="Layer_2" data-name="Layer 2"><g id="Layer_2-2" data-name="Layer 2"><path class="cls-1" d="M58.12,42.11H3.77A3.76,3.76,0,0,1,0,38.37V2A2,2,0,0,1,2,0h57.9a2,2,0,0,1,2,2V38.37A3.72,3.72,0,0,1,58.12,42.11Z"/><path class="cls-2" d="M56.84,5V37.11H5V5H56.84m3-5H2A2,2,0,0,0,0,2V38.37a3.76,3.76,0,0,0,3.75,3.74H58.12a3.72,3.72,0,0,0,3.72-3.74V2a2,2,0,0,0-2-2Z"/><path class="cls-1" d="M0,7.14l24.3,20.24a9.84,9.84,0,0,0,12.51.07l25-20.31V2a2,2,0,0,0-2-2H2A2,2,0,0,0,0,2V7.14Z"/><path class="cls-2" d="M56.56,5,33.69,23.57a4.79,4.79,0,0,1-3.06,1.09,4.87,4.87,0,0,1-3.1-1.12L5.27,5H56.56m3.32-5H2A2,2,0,0,0,0,2V7.14H0L24.33,27.38a9.84,9.84,0,0,0,12.51.07l25-20.31V2a2,2,0,0,0-2-2Z"/></g></g></svg>